<?xml version="1.0" encoding="UTF-8" standalone="no"?>
<svg
   viewBox="0 0 793.7007874015749 1122.5196850393702"
   width="793.7007874015749"
   height="1122.5196850393702"
   version="1.1"
   id="svg68"
   sodipodi:docname="bacn panel and truck base.svg"
   inkscape:version="1.4 (86a8ad7, 2024-10-11)"
   xmlns:inkscape="http://www.inkscape.org/namespaces/inkscape"
   xmlns:sodipodi="http://sodipodi.sourceforge.net/DTD/sodipodi-0.dtd"
   xmlns="http://www.w3.org/2000/svg"
   xmlns:svg="http://www.w3.org/2000/svg">
  <sodipodi:namedview
     id="namedview68"
     pagecolor="#ffffff"
     bordercolor="#000000"
     borderopacity="0.25"
     inkscape:showpageshadow="2"
     inkscape:pageopacity="0.0"
     inkscape:pagecheckerboard="0"
     inkscape:deskcolor="#d1d1d1"
     inkscape:zoom="0.73512621"
     inkscape:cx="880.80114"
     inkscape:cy="693.07827"
     inkscape:window-width="2560"
     inkscape:window-height="1369"
     inkscape:window-x="1912"
     inkscape:window-y="-8"
     inkscape:window-maximized="1"
     inkscape:current-layer="g68" />
  <desc
     id="desc1">TRUCK BASE.dxf - scale = 1.000000, origin = (0.000000, 0.000000), method = manual</desc>
  <defs
     id="defs4">
    <marker
       id="DistanceX"
       orient="auto"
       refX="0.0"
       refY="0.0"
       style="overflow:visible">
      <path
         d="M 3,-3 L -3,3 M 0,-5 L  0,5"
         style="stroke:#000000; stroke-width:0.5"
         id="path1" />
    </marker>
    <pattern
       id="Hatch"
       patternUnits="userSpaceOnUse"
       width="8"
       height="8"
       x="0"
       y="0">
      <path
         d="M8 4 l-4,4"
         stroke="#000000"
         stroke-width="0.25"
         linecap="square"
         id="path2" />
      <path
         d="M6 2 l-4,4"
         stroke="#000000"
         stroke-width="0.25"
         linecap="square"
         id="path3" />
      <path
         d="M4 0 l-4,4"
         stroke="#000000"
         stroke-width="0.25"
         linecap="square"
         id="path4" />
    </pattern>
    <symbol
       id="*MODEL_SPACE" />
    <symbol
       id="*PAPER_SPACE" />
  </defs>
  <g
     inkscape:groupmode="layer"
     inkscape:label="0"
     id="g68">
    <path
       d="m 643.04173,611.69085 a 0.25,0.25 0 0 0 -0.5,0 0.25,0.25 0 0 0 0.5,0 z"
       style="fill:none;stroke:#000000"
       id="path5" />
    <path
       style="fill:none;stroke:#000000"
       d="M 642.79138,611.69194 V 56.101937"
       id="path6" />
    <path
       style="fill:none;stroke:#000000"
       d="M 136.33538,56.101937 V 611.69194"
       id="path7" />
    <path
       style="fill:none;stroke:#000000"
       d="M 136.33538,56.101937 V 611.69194"
       id="path8" />
    <path
       style="fill:none;stroke:#000000"
       d="m 389.56338,623.03194 h -22.6772"
       id="path10" />
    <path
       style="fill:none;stroke:#000000"
       d="m 366.88618,623.03194 v -11.34"
       id="path11" />
    <path
       style="fill:none;stroke:#000000"
       d="m 366.88618,611.69194 h -37.7952"
       id="path12" />
    <path
       style="fill:none;stroke:#000000"
       d="m 329.09098,611.69194 v 11.34"
       id="path13" />
    <path
       style="fill:none;stroke:#000000"
       d="m 329.09098,623.03194 h -45.3546"
       id="path14" />
    <path
       style="fill:none;stroke:#000000"
       d="m 283.73638,623.03194 v -11.34"
       id="path15" />
    <path
       style="fill:none;stroke:#000000"
       d="m 283.73638,611.69194 h -30.236"
       id="path16" />
    <path
       style="fill:none;stroke:#000000"
       d="m 253.50038,611.69194 v 11.34"
       id="path17" />
    <path
       style="fill:none;stroke:#000000"
       d="m 253.50038,623.03194 h -45.354"
       id="path18" />
    <path
       style="fill:none;stroke:#000000"
       d="m 208.14638,623.03194 v -11.34"
       id="path19" />
    <path
       style="fill:none;stroke:#000000"
       d="m 208.14638,611.69194 h -30.237"
       id="path20" />
    <path
       style="fill:none;stroke:#000000"
       d="m 177.90938,611.69194 v 11.34"
       id="path21" />
    <path
       style="fill:none;stroke:#000000"
       d="m 177.90938,623.03194 h -26.456"
       id="path22" />
    <path
       style="fill:none;stroke:#000000"
       d="m 151.45338,623.03194 v -11.34"
       id="path23" />
    <path
       style="fill:none;stroke:#000000"
       d="m 151.45338,611.69194 h -15.118"
       id="path24" />
    <path
       style="fill:none;stroke:#000000"
       d="m 627.67338,611.69194 h 15.118"
       id="path26" />
    <path
       style="fill:none;stroke:#000000"
       d="m 525.62638,623.03194 h 45.354"
       id="path27" />
    <path
       style="fill:none;stroke:#000000"
       d="m 412.24058,623.03194 v -11.34"
       id="path28" />
    <path
       style="fill:none;stroke:#000000"
       d="m 450.03578,623.03194 h 45.3546"
       id="path30" />
    <path
       style="fill:none;stroke:#000000"
       d="m 450.03578,611.69194 v 11.34"
       id="path31" />
    <path
       style="fill:none;stroke:#000000"
       d="m 412.24058,611.69194 h 37.7952"
       id="path32" />
    <path
       style="fill:none;stroke:#000000"
       d="m 495.39038,611.69194 h 30.236"
       id="path33" />
    <path
       style="fill:none;stroke:#000000"
       d="m 570.98038,611.69194 h 30.237"
       id="path34" />
    <path
       style="fill:none;stroke:#000000"
       d="m 601.21738,611.69194 v 11.34"
       id="path35" />
    <path
       style="fill:none;stroke:#000000"
       d="m 525.62638,611.69194 v 11.34"
       id="path36" />
    <path
       style="fill:none;stroke:#000000"
       d="m 389.56338,623.03194 h 22.6772"
       id="path37" />
    <path
       style="fill:none;stroke:#000000"
       d="m 570.98038,623.03194 v -11.34"
       id="path38" />
    <path
       style="fill:none;stroke:#000000"
       d="m 601.21738,623.03194 h 26.456"
       id="path39" />
    <path
       style="fill:none;stroke:#000000"
       d="m 627.67338,623.03194 v -11.34"
       id="path40" />
    <path
       style="fill:none;stroke:#000000"
       d="m 495.39038,623.03194 v -11.34"
       id="path41" />
    <path
       style="fill:none;stroke:#000000"
       d="m 136.33538,56.101937 v -11.34"
       id="path42" />
    <path
       style="fill:none;stroke:#000000"
       d="m 136.33538,44.761937 h 37.795"
       id="path43" />
    <path
       style="fill:none;stroke:#000000"
       d="m 174.13038,44.761937 v 11.34"
       id="path44" />
    <path
       style="fill:none;stroke:#000000"
       d="m 174.13038,56.101937 h 45.354"
       id="path45" />
    <path
       style="fill:none;stroke:#000000"
       d="m 219.48438,56.101937 v -11.34"
       id="path46" />
    <path
       style="fill:none;stroke:#000000"
       d="m 219.48438,44.761937 h 37.796"
       id="path47" />
    <path
       style="fill:none;stroke:#000000"
       d="m 257.28038,44.761937 v 11.34"
       id="path48" />
    <path
       style="fill:none;stroke:#000000"
       d="m 257.28038,56.101937 h 45.3539"
       id="path49" />
    <path
       style="fill:none;stroke:#000000"
       d="m 302.63428,56.101937 v -11.34"
       id="path50" />
    <path
       style="fill:none;stroke:#000000"
       d="m 302.63428,44.761937 h 37.7952"
       id="path51" />
    <path
       style="fill:none;stroke:#000000"
       d="m 340.42948,44.761937 v 11.34"
       id="path52" />
    <path
       style="fill:none;stroke:#000000"
       d="m 340.42948,56.101937 h 45.35437"
       id="path53" />
    <path
       style="fill:none;stroke:#000000"
       d="m 385.78385,56.101937 v -11.34"
       id="path54" />
    <path
       style="fill:none;stroke:#000000"
       d="m 385.78385,44.761937 h 37.79523"
       id="path55" />
    <path
       style="fill:none;stroke:#000000"
       d="m 423.57908,44.761937 v 11.34"
       id="path56" />
    <path
       style="fill:none;stroke:#000000"
       d="m 423.57908,56.101937 h 45.3544"
       id="path57" />
    <path
       style="fill:none;stroke:#000000"
       d="m 468.93348,56.101937 v -11.34"
       id="path58" />
    <path
       style="fill:none;stroke:#000000"
       d="m 468.93348,44.761937 h 37.7949"
       id="path59" />
    <path
       style="fill:none;stroke:#000000"
       d="m 506.72838,44.761937 v 11.34"
       id="path60" />
    <path
       style="fill:none;stroke:#000000"
       d="m 506.72838,56.101937 h 45.355"
       id="path61" />
    <path
       style="fill:none;stroke:#000000"
       d="m 552.08338,56.101937 v -11.34"
       id="path62" />
    <path
       style="fill:none;stroke:#000000"
       d="m 552.08338,44.761937 h 37.795"
       id="path63" />
    <path
       style="fill:none;stroke:#000000"
       d="m 589.87838,44.761937 v 11.34"
       id="path64" />
    <path
       style="fill:none;stroke:#000000"
       d="m 589.87838,56.101937 h 41.575"
       id="path65" />
    <path
       style="fill:none;stroke:#000000"
       d="m 631.45338,56.101937 v -11.34"
       id="path66" />
    <path
       style="fill:none;stroke:#000000"
       d="m 631.45338,44.761937 h 11.338"
       id="path67" />
    <path
       style="fill:none;stroke:#000000"
       d="M 642.79138,44.761937 V 611.69194"
       id="path68" />
    <path
       d="m 153.74496,764.84797 h 26.4567 v 11.33858 h -26.4567 z"
       style="fill:none;stroke:#000000"
       id="path6-8" />
    <path
       d="m 210.43788,764.84797 h 45.35433 v 11.33858 h -45.35433 z"
       style="fill:none;stroke:#000000"
       id="path7-4" />
    <path
       d="m 286.02843,764.84797 h 45.35433 v 11.33858 h -45.35433 z"
       style="fill:none;stroke:#000000"
       id="path8-0" />
    <path
       d="m 369.17804,764.84797 h 45.35433 v 11.33858 h -45.35433 z"
       style="fill:none;stroke:#000000"
       id="path9" />
    <path
       d="m 452.32764,764.84797 h 45.35434 v 11.33858 h -45.35434 z"
       style="fill:none;stroke:#000000"
       id="path10-7" />
    <path
       d="m 527.9182,764.84797 h 45.35433 v 11.33858 H 527.9182 Z"
       style="fill:none;stroke:#000000"
       id="path11-6" />
    <path
       d="m 603.50875,764.84797 h 26.45669 v 11.33858 h -26.45669 z"
       style="fill:none;stroke:#000000"
       id="path12-3" />
    <path
       d="m 127.28827,693.03694 h 11.33858 v -37.79527 h 506.4567 v 37.79527 h 11.33859 v 45.35434 h -11.33859 v 45.35433 h 11.33858 v 45.35433 h -11.33858 v 30.23622 h 11.33858 v 45.35433 h -11.33858 v 30.23618 h -45.35433 v 11.3386 h -45.35433 v -11.3386 H 414.53237 v 11.3386 h -45.35433 v -11.3386 H 229.33552 v 11.3386 h -45.35434 v -11.3386 h -45.35433 v -30.23618 h -11.33858 v -45.35433 h 11.33858 v -30.23622 h -11.33858 v -45.35433 h 11.33858 v -45.35433 h -11.33858 z"
       style="fill:none;stroke:#000000"
       id="path13-6" />
    <path
       style="fill:none;stroke:#000000"
       d="m 554.3752,946.26707 v 0"
       id="path14-1" />
  </g>
</svg>
