<?xml version="1.0" encoding="UTF-8" standalone="no"?>
<svg
   viewBox="0 0 793.7007874015749 1122.5196850393702"
   width="793.7007874015749"
   height="1122.5196850393702"
   version="1.1"
   id="svg8"
   sodipodi:docname="side.svg"
   inkscape:version="1.4 (86a8ad7, 2024-10-11)"
   xmlns:inkscape="http://www.inkscape.org/namespaces/inkscape"
   xmlns:sodipodi="http://sodipodi.sourceforge.net/DTD/sodipodi-0.dtd"
   xmlns="http://www.w3.org/2000/svg"
   xmlns:svg="http://www.w3.org/2000/svg">
  <sodipodi:namedview
     id="namedview8"
     pagecolor="#ffffff"
     bordercolor="#000000"
     borderopacity="0.25"
     inkscape:showpageshadow="2"
     inkscape:pageopacity="0.0"
     inkscape:pagecheckerboard="0"
     inkscape:deskcolor="#d1d1d1"
     inkscape:zoom="0.51981273"
     inkscape:cx="-93.302833"
     inkscape:cy="0.96188488"
     inkscape:window-width="2560"
     inkscape:window-height="1369"
     inkscape:window-x="1912"
     inkscape:window-y="-8"
     inkscape:window-maximized="1"
     inkscape:current-layer="g8" />
  <desc
     id="desc1">Sketch6.dxf - scale = 1.000000, origin = (0.000000, 0.000000), method = manual</desc>
  <defs
     id="defs4">
    <marker
       id="DistanceX"
       orient="auto"
       refX="0.0"
       refY="0.0"
       style="overflow:visible">
      <path
         d="M 3,-3 L -3,3 M 0,-5 L  0,5"
         style="stroke:#000000; stroke-width:0.5"
         id="path1" />
    </marker>
    <pattern
       id="Hatch"
       patternUnits="userSpaceOnUse"
       width="8"
       height="8"
       x="0"
       y="0">
      <path
         d="M8 4 l-4,4"
         stroke="#000000"
         stroke-width="0.25"
         linecap="square"
         id="path2" />
      <path
         d="M6 2 l-4,4"
         stroke="#000000"
         stroke-width="0.25"
         linecap="square"
         id="path3" />
      <path
         d="M4 0 l-4,4"
         stroke="#000000"
         stroke-width="0.25"
         linecap="square"
         id="path4" />
    </pattern>
    <symbol
       id="*MODEL_SPACE" />
    <symbol
       id="*PAPER_SPACE" />
  </defs>
  <g
     inkscape:groupmode="layer"
     inkscape:label="0"
     id="g8">
    <path
       d="m 35.625953,300.04408 h 11.33858 v 45.35433 h -11.33858 v 30.23622 h 11.33858 v 45.35433 h -11.33858 v 30.23622 h 11.33858 v 45.35433 h -11.33858 v 30.23622 h 11.33858 v 45.35433 h -11.33858 v 30.2362 h 11.33858 v 45.3544 h -11.33858 v 30.2362 h 11.33858 v 45.3543 h -11.33858 v 30.2362 h 11.33858 v 45.3544 h -11.33858 v 30.2362 h 11.33858 v 45.3543 h -11.33858 v 30.2362 h 11.33858 v 68.0315 h 30.23622 v -11.3386 h 45.354327 v 11.3386 h 30.23622 v -11.3386 h 45.35434 v 11.3386 h 45.35433 v -11.3386 h 45.35433 v 11.3386 h 37.79527 V 443.66613 405.87085 h 37.79528 v -11.33858 h 30.23622 v 11.33858 h 26.45669 v -30.23622 h -11.33858 v -37.79528 h 11.33858 v -30.23622 h -11.33858 v -37.79527 h 11.33858 v -26.4567 l -23.3592,-38.87625 -9.71907,5.8398 -15.5728,-25.91749 9.71906,-5.83981 -23.50237,-39.11452 -9.71907,5.8398 -15.5728,-25.9175 9.71906,-5.8398 -23.37828,-38.907998 -9.71907,5.8398 -15.5728,-25.9175 9.71906,-5.8398 -27.14872,-45.1830601 -20.89717,1.22386 0.66293,11.3191901 -30.1845,1.76779 -0.66292,-11.3191801 -45.67716,2.67514 0.66292,11.3191801 -30.28241,1.77353 -0.66293,-11.31919 -42.76971,2.22933 0.63811,11.32062 -33.858487,1.90851 -0.63811,-11.32062 -26.39679,1.48792 -0.079,85.009718 0.079,147.80576 v 20.40947 h -11.33858 z"
       style="fill:none;stroke:#000000"
       id="path5" />
    <path
       d="m 88.539333,260.35903 a 85.03937,85.03937 0 0 0 0,-170.078738 85.03937,85.03937 0 0 0 0,170.078738 z"
       style="fill:none;stroke:#000000"
       id="path6" />
    <path
       d="m 84.759813,874.53226 a 15.118111,15.118111 0 0 0 0,-30.2362 15.118111,15.118111 0 0 0 0,30.2362 z"
       style="fill:none;stroke:#000000"
       id="path7" />
    <path
       d="m 249.16926,320.83148 v 49.13386 H 147.12201 v -49.13386 z"
       style="fill:none;stroke:#000000"
       id="path8" />
  </g>
</svg>
